
<svg id="z12524" class="acjk" version="1.1" viewBox="0 0 1024 1024" xmlns="http://www.w3.org/2000/svg" xmlns:xlink="http://www.w3.org/1999/xlink">
<style>
<![CDATA[
@keyframes zk {
	to {
		stroke-dashoffset:0;
	}
}
svg.acjk path[clip-path] {
	--t:0.8s;
	animation:zk var(--t) linear forwards var(--d);
	stroke-dasharray:3337;
	stroke-dashoffset:3339;
	stroke-width:128;
	stroke-linecap:round;
	fill:none;
	stroke:#000;
}
svg.acjk path[id] {fill:#ccc;}
]]>
</style>
<path id="z12524d1" d="M293 212C313 253 311 322 303 596C300 662 301 718 276 780C259 821 333 888 355 873C390 845 427 830 463 807C564 738 678 660 768 540C814 478 859 394 742 511C640 611 493 712 392 761C347 782 358 721 359 690C361 589 368 340 387 272C403 209 376 190 344 170C258 115 275 177 293 212Z"></path>
<defs>
	<clipPath id="z12524c1"><use xlink:href="#z12524d1"></use></clipPath>
</defs>
<path style="--d:1s;" pathLength="3333" clip-path="url(#z12524c1)" d="M 292,163 341,228 311,785 359,836 564,712 803,468"></path>
<g visibility="visible"><circle cx="304.03927569964947" cy="178.97046776484115" r="40" stroke="#000" fill="#fff" stroke-width="5"></circle><text x="304.03927569964947" y="198.97046776484115" text-anchor="middle" font-family="arial" font-weight="normal" fill="#000" font-size="60">1</text></g></svg>

