
<svg id="z12453" class="acjk" version="1.1" viewBox="0 0 1024 1024" xmlns="http://www.w3.org/2000/svg" xmlns:xlink="http://www.w3.org/1999/xlink">
<style>
<![CDATA[
@keyframes zk {
	to {
		stroke-dashoffset:0;
	}
}
svg.acjk path[clip-path] {
	--t:0.8s;
	animation:zk var(--t) linear forwards var(--d);
	stroke-dasharray:3337;
	stroke-dashoffset:3339;
	stroke-width:128;
	stroke-linecap:round;
	fill:none;
	stroke:#000;
}
svg.acjk path[id] {fill:#ccc;}
]]>
</style>
<path id="z12453d1" d="M458 261C455 279 467 296 471 314C478 345 480 387 481 418C481 432 522 424 522 410C520 388 522 358 528 338C531 323 542 307 539 291C537 281 525 273 516 269C492 255 459 245 458 261Z"></path>
<path id="z12453d2" d="M250 423C245 422 237 425 238 432C238 446 245 460 249 474C255 502 259 530 263 558C265 582 269 607 287 625C292 631 299 638 309 641C314 642 319 637 320 631C322 608 319 585 315 563C308 528 302 514 296 480C294 469 295 456 289 446C284 437 265 423 250 423Z"></path>
<path id="z12453d3" d="M690 360C671 363 654 372 636 378C598 388 560 402 522 410C495 415 495 415 481 418C417 430 313 442 289 446C278 448 284 480 296 480C328 481 363 479 396 472C451 459 538 439 612 431C633 428 657 426 680 430C688 431 696 436 698 445C701 459 696 474 691 487C675 528 656 568 635 606C588 689 560 749 404 901C383 920 382 934 410 918C545 836 626 718 646 687C677 635 706 580 735 526C744 506 755 487 771 472C777 465 786 457 787 448C787 433 776 421 768 411C751 391 731 373 707 364C702 361 695 358 690 360Z"></path>
<defs>
	<clipPath id="z12453c1"><use xlink:href="#z12453d1"></use></clipPath>
	<clipPath id="z12453c2"><use xlink:href="#z12453d2"></use></clipPath>
	<clipPath id="z12453c3"><use xlink:href="#z12453d3"></use></clipPath>
</defs>
<path style="--d:1s;" pathLength="3333" clip-path="url(#z12453c1)" d="M 469,264 505,305 489,409"></path>
<path style="--d:2s;" pathLength="3333" clip-path="url(#z12453c2)" d="M 248,431 309,632"></path>
<path style="--d:3s;" pathLength="3333" clip-path="url(#z12453c3)" d="M 297,451 363,453 709,385 758,439 526,805 401,916"></path>
<g visibility="visible"><circle cx="482.1960234643019" cy="279.0288045010105" r="40" stroke="#000" fill="#fff" stroke-width="5"></circle><text x="482.1960234643019" y="299.0288045010105" text-anchor="middle" font-family="arial" font-weight="normal" fill="#000" font-size="60">1</text><circle cx="253.8080752639026" cy="450.138084066302" r="40" stroke="#000" fill="#fff" stroke-width="5"></circle><text x="253.8080752639026" y="470.138084066302" text-anchor="middle" font-family="arial" font-weight="normal" fill="#000" font-size="60">2</text><circle cx="316.99082358290764" cy="451.6057825328154" r="40" stroke="#000" fill="#fff" stroke-width="5"></circle><text x="316.99082358290764" y="471.6057825328154" text-anchor="middle" font-family="arial" font-weight="normal" fill="#000" font-size="60">3</text></g></svg>

