
<svg id="z12457" class="acjk" version="1.1" viewBox="0 0 1024 1024" xmlns="http://www.w3.org/2000/svg" xmlns:xlink="http://www.w3.org/1999/xlink">
<style>
<![CDATA[
@keyframes zk {
	to {
		stroke-dashoffset:0;
	}
}
svg.acjk path[clip-path] {
	--t:0.8s;
	animation:zk var(--t) linear forwards var(--d);
	stroke-dasharray:3337;
	stroke-dashoffset:3339;
	stroke-width:128;
	stroke-linecap:round;
	fill:none;
	stroke:#000;
}
svg.acjk path[id] {fill:#ccc;}
]]>
</style>
<path id="z12457d1" d="M529 449C506 453 410 470 351 478C309 482 265 481 223 473C219 472 211 470 211 477C210 481 216 483 219 486C233 500 248 510 266 519C287 530 313 533 337 529C368 522 399 513 430 508C463 502 495 493 529 489C557 485 557 485 571 483C640 473 731 465 780 465C794 464 793 456 792 453C785 435 769 417 750 414C726 409 621 431 571 441C543 446 543 446 529 449Z"></path>
<path id="z12457d2" d="M519 274C512 274 512 283 513 288C515 308 523 328 525 349C526 375 529 416 529 449C529 476 529 476 529 489C529 554 529 554 529 586C529 628 529 671 531 719C531 747 533 774 531 801C530 812 528 824 521 833C514 843 499 844 488 841C470 835 437 805 437 819C437 829 472 865 490 887C500 900 504 904 518 919C524 925 532 924 539 914C555 891 571 868 579 841C583 826 579 809 577 793C572 746 572 698 571 651C570 595 571 538 571 483C571 455 571 455 571 441C573 381 585 352 601 330C603 326 604 320 600 316C579 296 553 281 526 274C521 274 521 274 519 274Z"></path>
<path id="z12457d3" d="M529 489C520 511 499 542 484 566C427 645 361 719 269 801C246 822 262 820 284 806C336 773 387 740 431 698C463 667 509 618 529 586C546 558 541 459 529 489Z"></path>
<defs>
	<clipPath id="z12457c1"><use xlink:href="#z12457d1"></use></clipPath>
	<clipPath id="z12457c2"><use xlink:href="#z12457d2"></use></clipPath>
	<clipPath id="z12457c3"><use xlink:href="#z12457d3"></use></clipPath>
</defs>
<path style="--d:1s;" pathLength="3333" clip-path="url(#z12457c1)" d="M 219,479 318,508 733,442 788,460"></path>
<path style="--d:2s;" pathLength="3333" clip-path="url(#z12457c2)" d="M 520,281 562,322 531,911 443,822"></path>
<path style="--d:3s;" pathLength="3333" clip-path="url(#z12457c3)" d="M 524,514 426,684 318,774 266,810"></path>
<g visibility="visible"><circle cx="238.193472861591" cy="484.62233043420343" r="40" stroke="#000" fill="#fff" stroke-width="5"></circle><text x="238.193472861591" y="504.62233043420343" text-anchor="middle" font-family="arial" font-weight="normal" fill="#000" font-size="60">1</text><circle cx="534.3114841176157" cy="294.9707344957677" r="40" stroke="#000" fill="#fff" stroke-width="5"></circle><text x="534.3114841176157" y="314.9707344957677" text-anchor="middle" font-family="arial" font-weight="normal" fill="#000" font-size="60">2</text><circle cx="514.0114339208952" cy="531.3271044229368" r="40" stroke="#000" fill="#fff" stroke-width="5"></circle><text x="514.0114339208952" y="551.3271044229368" text-anchor="middle" font-family="arial" font-weight="normal" fill="#000" font-size="60">3</text></g></svg>
