
<svg id="z12483" class="acjk" version="1.1" viewBox="0 0 1024 1024" xmlns="http://www.w3.org/2000/svg" xmlns:xlink="http://www.w3.org/1999/xlink">
<style>
<![CDATA[
@keyframes zk {
	to {
		stroke-dashoffset:0;
	}
}
svg.acjk path[clip-path] {
	--t:0.8s;
	animation:zk var(--t) linear forwards var(--d);
	stroke-dasharray:3337;
	stroke-dashoffset:3339;
	stroke-width:128;
	stroke-linecap:round;
	fill:none;
	stroke:#000;
}
svg.acjk path[id] {fill:#ccc;}
]]>
</style>
<path id="z12483d1" d="M205 404C234 445 247 486 271 529C276 538 288 547 299 542C319 535 325 512 322 492C319 466 294 432 232 391C209 375 193 388 205 404Z"></path>
<path id="z12483d2" d="M413 352C445 390 463 431 484 477C493 498 536 481 534 440C532 413 520 388 445 336C410 311 392 325 413 352Z"></path>
<path id="z12483d3" d="M728 327C677 326 705 371 695 409C678 474 578 665 418 812C349 875 359 896 429 844C590 726 687 594 768 461C779 443 785 428 804 419C842 401 761 328 728 327Z"></path>
<defs>
	<clipPath id="z12483c1"><use xlink:href="#z12483d1"></use></clipPath>
	<clipPath id="z12483c2"><use xlink:href="#z12483d2"></use></clipPath>
	<clipPath id="z12483c3"><use xlink:href="#z12483d3"></use></clipPath>
</defs>
<path style="--d:1s;" pathLength="3333" clip-path="url(#z12483c1)" d="M 214,396 300,535"></path>
<path style="--d:2s;" pathLength="3333" clip-path="url(#z12483c2)" d="M 414,328 489,421 503,478"></path>
<path style="--d:3s;" pathLength="3333" clip-path="url(#z12483c3)" d="M 716,335 759,395 602,671 383,863"></path>
<g visibility="visible"><circle cx="224.5228796080955" cy="413.00791006424737" r="40" stroke="#000" fill="#fff" stroke-width="5"></circle><text x="224.5228796080955" y="433.00791006424737" text-anchor="middle" font-family="arial" font-weight="normal" fill="#000" font-size="60">1</text><circle cx="426.5550490237956" cy="343.5682607895066" r="40" stroke="#000" fill="#fff" stroke-width="5"></circle><text x="426.5550490237956" y="363.5682607895066" text-anchor="middle" font-family="arial" font-weight="normal" fill="#000" font-size="60">2</text><circle cx="727.6503788285602" cy="351.2563425514793" r="40" stroke="#000" fill="#fff" stroke-width="5"></circle><text x="727.6503788285602" y="371.2563425514793" text-anchor="middle" font-family="arial" font-weight="normal" fill="#000" font-size="60">3</text></g></svg>
