
<svg id="z12515" class="acjk" version="1.1" viewBox="0 0 1024 1024" xmlns="http://www.w3.org/2000/svg" xmlns:xlink="http://www.w3.org/1999/xlink">
<style>
<![CDATA[
@keyframes zk {
	to {
		stroke-dashoffset:0;
	}
}
svg.acjk path[clip-path] {
	--t:0.8s;
	animation:zk var(--t) linear forwards var(--d);
	stroke-dasharray:3337;
	stroke-dashoffset:3339;
	stroke-width:128;
	stroke-linecap:round;
	fill:none;
	stroke:#000;
}
svg.acjk path[id] {fill:#ccc;}
]]>
</style>
<path id="z12515d1" d="M379 494C327 510 273 523 219 529C130 540 223 580 267 574C295 570 369 543 560 478C602 463 670 440 700 442C719 443 728 466 716 482C699 502 679 521 668 534C610 596 640 581 699 546C746 519 791 496 835 464C850 452 823 430 811 421C779 395 752 370 696 396C634 426 428 479 379 494Z"></path>
<path id="z12515d2" d="M399 305C415 321 420 336 423 348C435 400 456 562 458 578C484 817 470 808 478 843C484 874 504 924 524 923C547 922 539 861 536 832C525 722 479 418 476 399C471 356 478 325 476 297C474 271 444 266 409 262C352 256 384 291 399 305Z"></path>
<defs>
	<clipPath id="z12515c1"><use xlink:href="#z12515d1"></use></clipPath>
	<clipPath id="z12515c2"><use xlink:href="#z12515d2"></use></clipPath>
</defs>
<path style="--d:1s;" pathLength="3333" clip-path="url(#z12515c1)" d="M 187,541 258,548 743,404 796,445 652,564"></path>
<path style="--d:2s;" pathLength="3333" clip-path="url(#z12515c2)" d="M 394,272 448,308 522,907"></path>
<g visibility="visible"><circle cx="206.9035000031957" cy="542.9623169017235" r="40" stroke="#000" fill="#fff" stroke-width="5"></circle><text x="206.9035000031957" y="562.9623169017235" text-anchor="middle" font-family="arial" font-weight="normal" fill="#000" font-size="60">1</text><circle cx="410.6410058867569" cy="283.0940039245046" r="40" stroke="#000" fill="#fff" stroke-width="5"></circle><text x="410.6410058867569" y="303.0940039245046" text-anchor="middle" font-family="arial" font-weight="normal" fill="#000" font-size="60">2</text></g></svg>
