
<svg id="z12519" class="acjk" version="1.1" viewBox="0 0 1024 1024" xmlns="http://www.w3.org/2000/svg" xmlns:xlink="http://www.w3.org/1999/xlink">
<style>
<![CDATA[
@keyframes zk {
	to {
		stroke-dashoffset:0;
	}
}
svg.acjk path[clip-path] {
	--t:0.8s;
	animation:zk var(--t) linear forwards var(--d);
	stroke-dasharray:3337;
	stroke-dashoffset:3339;
	stroke-width:128;
	stroke-linecap:round;
	fill:none;
	stroke:#000;
}
svg.acjk path[id] {fill:#ccc;}
]]>
</style>
<path id="z12519d1" d="M661 322C658 322 656 322 653 322C545 350 402 390 307 379C265 374 293 402 301 408C328 426 341 432 368 427C453 413 535 381 622 382C652 382 659 420 657 438C655 452 647 534 647 538C643 570 643 570 641 586C633 660 622 734 613 762C609 781 667 790 671 771C682 688 683 595 699 513C707 472 721 432 745 398C752 387 719 362 696 342C689 334 677 322 661 322Z"></path>
<path id="z12519d2" d="M647 538C616 546 392 586 321 582C296 580 297 593 312 606C349 640 386 632 446 618C517 603 560 595 641 586C657 583 663 535 647 538Z"></path>
<path id="z12519d3" d="M295 806C239 803 271 830 289 839C297 844 315 852 332 850C429 842 559 817 613 826C664 834 681 836 694 823C713 805 698 785 671 771C653 764 632 758 613 762C548 778 369 809 295 806Z"></path>
<defs>
	<clipPath id="z12519c1"><use xlink:href="#z12519d1"></use></clipPath>
	<clipPath id="z12519c2"><use xlink:href="#z12519d2"></use></clipPath>
	<clipPath id="z12519c3"><use xlink:href="#z12519d3"></use></clipPath>
</defs>
<path style="--d:1s;" pathLength="3333" clip-path="url(#z12519c1)" d="M 295,386 347,406 648,343 697,402 645,746"></path>
<path style="--d:2s;" pathLength="3333" clip-path="url(#z12519c2)" d="M 310,598 347,610 643,546"></path>
<path style="--d:3s;" pathLength="3333" clip-path="url(#z12519c3)" d="M 273,812 324,832 573,784 693,812"></path>
<g visibility="visible"><circle cx="313.6669121240612" cy="393.1795815861774" r="40" stroke="#000" fill="#fff" stroke-width="5"></circle><text x="313.6669121240612" y="413.1795815861774" text-anchor="middle" font-family="arial" font-weight="normal" fill="#000" font-size="60">1</text><circle cx="329.02445637897523" cy="604.1700939607488" r="40" stroke="#000" fill="#fff" stroke-width="5"></circle><text x="329.02445637897523" y="624.1700939607488" text-anchor="middle" font-family="arial" font-weight="normal" fill="#000" font-size="60">2</text><circle cx="291.6194639697413" cy="819.3017505763692" r="40" stroke="#000" fill="#fff" stroke-width="5"></circle><text x="291.6194639697413" y="839.3017505763692" text-anchor="middle" font-family="arial" font-weight="normal" fill="#000" font-size="60">3</text></g></svg>
